<svg width="40" height="40" viewBox="0 0 40 40" fill="none" xmlns="http://www.w3.org/2000/svg">
<path d="M14.7785 20.2653L27.4585 7.58204L27.4588 7.58166C27.7493 7.28991 27.8983 6.93287 27.8983 6.52362C27.8983 6.11437 27.7493 5.75733 27.4588 5.46558L27.458 5.46478C27.1657 5.17371 26.8079 5.02261 26.3974 5.01863L26.3974 5.01863C25.9843 5.01465 25.6243 5.16241 25.3316 5.45518L25.3315 5.45522L12.5982 18.1952C12.5982 18.1952 12.5982 18.1952 12.5982 18.1952C12.306 18.4874 12.0889 18.8171 11.951 19.184L11.9507 19.1847C11.8177 19.5418 11.75 19.9024 11.75 20.2653C11.75 20.6281 11.8177 20.9892 11.9506 21.3473L11.9511 21.3485C12.089 21.7142 12.3061 22.0437 12.5979 22.3367L12.5983 22.3371L25.3333 35.0638L25.3336 35.0641C25.6261 35.3553 25.983 35.5053 26.3917 35.5053C26.8004 35.5053 27.1573 35.3553 27.4497 35.0641C27.7422 34.7729 27.894 34.4163 27.8967 34.0069C27.8993 33.5971 27.7513 33.2397 27.4601 32.9485C27.4601 32.9485 27.4601 32.9485 27.4601 32.9485L14.7785 20.2653Z" fill="#012169" stroke="#012169" stroke-width="0.5"/>
</svg>
