<svg width="393" height="150" viewBox="0 0 393 150" fill="none" xmlns="http://www.w3.org/2000/svg">
<path d="M124.75 104.25L124.75 131.25H137.25V98.6875L124.75 104.25Z" fill="#4F3D11"/>
<path fill-rule="evenodd" clip-rule="evenodd" d="M115.375 106.25C118.688 106.25 121.813 105.312 124.75 104.25L137.25 98.6875C140.375 99.5625 143.5 100 146.625 100C151.139 100 155.609 99.1109 159.78 97.3833C163.95 95.6558 167.74 93.1238 170.932 89.9318C174.124 86.7398 176.656 82.9503 178.383 78.7797C180.111 74.6092 181 70.1392 181 65.625C181 61.1108 180.111 56.6408 178.383 52.4703C176.656 48.2997 174.124 44.5102 170.932 41.3182C167.74 38.1262 163.95 35.5941 159.78 33.8666C155.609 32.1391 151.139 31.25 146.625 31.25H145.063C140 23.75 131.375 18.75 121.625 18.75C106 18.75 93.5001 31.25 93.5001 46.875C93.5001 50.8125 94.3126 54.5625 95.7501 57.9375C90.3751 63.0625 87.2501 70.1875 87.2501 78.125C87.2501 93.75 99.7501 106.25 115.375 106.25Z" fill="#4F3D11"/>
<path fill-rule="evenodd" clip-rule="evenodd" d="M115.375 106.25C118.688 106.25 121.813 105.312 124.75 104.25L137.25 98.6875C140.375 99.5625 143.5 100 146.625 100C151.139 100 155.609 99.1109 159.78 97.3833C163.95 95.6558 167.74 93.1238 170.932 89.9318C174.124 86.7398 176.656 82.9503 178.383 78.7797C180.111 74.6092 181 70.1392 181 65.625C181 61.1108 180.111 56.6408 178.383 52.4703C176.656 48.2997 174.124 44.5102 170.932 41.3182C167.74 38.1262 163.95 35.5941 159.78 33.8666C155.609 32.1391 151.139 31.25 146.625 31.25H145.063C140 23.75 131.375 18.75 121.625 18.75C106 18.75 93.5001 31.25 93.5001 46.875C93.5001 50.8125 94.3126 54.5625 95.7501 57.9375C90.3751 63.0625 87.2501 70.1875 87.2501 78.125C87.2501 93.75 99.7501 106.25 115.375 106.25Z" fill="#0FA002"/>
<path d="M34.375 118.125V131.625H40.625V115.344L34.375 118.125Z" fill="#4F3D11"/>
<path fill-rule="evenodd" clip-rule="evenodd" d="M29.6875 119.125C31.3438 119.125 32.9063 118.656 34.375 118.125L40.625 115.344C42.1875 115.781 43.75 116 45.3125 116C47.5696 116 49.8046 115.555 51.8899 114.692C53.9752 113.828 55.8699 112.562 57.4659 110.966C59.0619 109.37 60.3279 107.475 61.1917 105.39C62.0554 103.305 62.5 101.07 62.5 98.8125C62.5 96.5554 62.0554 94.3204 61.1917 92.2351C60.3279 90.1498 59.0619 88.2551 57.4659 86.6591C55.8699 85.0631 53.9752 83.7971 51.8899 82.9333C49.8046 82.0696 47.5696 81.625 45.3125 81.625H44.5312C42 77.875 37.6875 75.375 32.8125 75.375C25 75.375 18.75 81.625 18.75 89.4375C18.75 91.4062 19.1563 93.2812 19.875 94.9688C17.1875 97.5312 15.625 101.094 15.625 105.062C15.625 112.875 21.875 119.125 29.6875 119.125Z" fill="#4F3D11"/>
<path fill-rule="evenodd" clip-rule="evenodd" d="M29.6875 119.125C31.3438 119.125 32.9063 118.656 34.375 118.125L40.625 115.344C42.1875 115.781 43.75 116 45.3125 116C47.5696 116 49.8046 115.555 51.8899 114.692C53.9752 113.828 55.8699 112.562 57.4659 110.966C59.0619 109.37 60.3279 107.475 61.1917 105.39C62.0554 103.305 62.5 101.07 62.5 98.8125C62.5 96.5554 62.0554 94.3204 61.1917 92.2351C60.3279 90.1498 59.0619 88.2551 57.4659 86.6591C55.8699 85.0631 53.9752 83.7971 51.8899 82.9333C49.8046 82.0696 47.5696 81.625 45.3125 81.625H44.5312C42 77.875 37.6875 75.375 32.8125 75.375C25 75.375 18.75 81.625 18.75 89.4375C18.75 91.4062 19.1563 93.2812 19.875 94.9688C17.1875 97.5312 15.625 101.094 15.625 105.062C15.625 112.875 21.875 119.125 29.6875 119.125Z" fill="#0FA002"/>
<path d="M326.375 118.125V131.625H332.625V115.344L326.375 118.125Z" fill="#4F3D11"/>
<path fill-rule="evenodd" clip-rule="evenodd" d="M321.688 119.125C323.344 119.125 324.906 118.656 326.375 118.125L332.625 115.344C334.188 115.781 335.75 116 337.313 116C339.57 116 341.805 115.555 343.89 114.692C345.975 113.828 347.87 112.562 349.466 110.966C351.062 109.37 352.328 107.475 353.192 105.39C354.055 103.305 354.5 101.07 354.5 98.8125C354.5 96.5554 354.055 94.3204 353.192 92.2351C352.328 90.1498 351.062 88.2551 349.466 86.6591C347.87 85.0631 345.975 83.7971 343.89 82.9333C341.805 82.0696 339.57 81.625 337.313 81.625H336.531C334 77.875 329.688 75.375 324.812 75.375C317 75.375 310.75 81.625 310.75 89.4375C310.75 91.4062 311.156 93.2812 311.875 94.9688C309.188 97.5312 307.625 101.094 307.625 105.062C307.625 112.875 313.875 119.125 321.688 119.125Z" fill="#4F3D11"/>
<path fill-rule="evenodd" clip-rule="evenodd" d="M321.688 119.125C323.344 119.125 324.906 118.656 326.375 118.125L332.625 115.344C334.188 115.781 335.75 116 337.313 116C339.57 116 341.805 115.555 343.89 114.692C345.975 113.828 347.87 112.562 349.466 110.966C351.062 109.37 352.328 107.475 353.192 105.39C354.055 103.305 354.5 101.07 354.5 98.8125C354.5 96.5554 354.055 94.3204 353.192 92.2351C352.328 90.1498 351.062 88.2551 349.466 86.6591C347.87 85.0631 345.975 83.7971 343.89 82.9333C341.805 82.0696 339.57 81.625 337.313 81.625H336.531C334 77.875 329.688 75.375 324.812 75.375C317 75.375 310.75 81.625 310.75 89.4375C310.75 91.4062 311.156 93.2812 311.875 94.9688C309.188 97.5312 307.625 101.094 307.625 105.062C307.625 112.875 313.875 119.125 321.688 119.125Z" fill="#0FA002"/>
<path d="M243.25 104.25L243.25 131.25H230.75V98.6875L243.25 104.25Z" fill="#4F3D11"/>
<path fill-rule="evenodd" clip-rule="evenodd" d="M252.625 106.25C249.312 106.25 246.187 105.312 243.25 104.25L230.75 98.6875C227.625 99.5625 224.5 100 221.375 100C216.861 100 212.391 99.1109 208.22 97.3833C204.05 95.6558 200.26 93.1238 197.068 89.9318C193.876 86.7398 191.344 82.9503 189.617 78.7797C187.889 74.6092 187 70.1392 187 65.625C187 61.1108 187.889 56.6408 189.617 52.4703C191.344 48.2997 193.876 44.5102 197.068 41.3182C200.26 38.1262 204.05 35.5941 208.22 33.8666C212.391 32.1391 216.861 31.25 221.375 31.25H222.937C228 23.75 236.625 18.75 246.375 18.75C262 18.75 274.5 31.25 274.5 46.875C274.5 50.8125 273.687 54.5625 272.25 57.9375C277.625 63.0625 280.75 70.1875 280.75 78.125C280.75 93.75 268.25 106.25 252.625 106.25Z" fill="#4F3D11"/>
<path fill-rule="evenodd" clip-rule="evenodd" d="M252.625 106.25C249.312 106.25 246.187 105.312 243.25 104.25L230.75 98.6875C227.625 99.5625 224.5 100 221.375 100C216.861 100 212.391 99.1109 208.22 97.3833C204.05 95.6558 200.26 93.1238 197.068 89.9318C193.876 86.7398 191.344 82.9503 189.617 78.7797C187.889 74.6092 187 70.1392 187 65.625C187 61.1108 187.889 56.6408 189.617 52.4703C191.344 48.2997 193.876 44.5102 197.068 41.3182C200.26 38.1262 204.05 35.5941 208.22 33.8666C212.391 32.1391 216.861 31.25 221.375 31.25H222.937C228 23.75 236.625 18.75 246.375 18.75C262 18.75 274.5 31.25 274.5 46.875C274.5 50.8125 273.687 54.5625 272.25 57.9375C277.625 63.0625 280.75 70.1875 280.75 78.125C280.75 93.75 268.25 106.25 252.625 106.25Z" fill="#0FA002"/>
<path d="M186.833 113.5L186.833 131.5H195.167V109.792L186.833 113.5Z" fill="#4F3D11"/>
<path fill-rule="evenodd" clip-rule="evenodd" d="M180.583 114.833C182.792 114.833 184.875 114.208 186.833 113.5H195.167C197.25 114.083 201.917 113 204 113C207 112.5 209.448 111.755 212.5 110C215.621 108.205 217.5 106.5 219.5 104C221.5 101.5 222.532 99.6753 223.5 96.5C224.501 93.2165 224.333 90.7595 224.333 87.75C224.333 84.7405 223.741 81.7605 222.589 78.9802C221.437 76.1998 219.749 73.6735 217.621 71.5455C215.493 69.4175 212.967 67.7294 210.187 66.5778C207.406 65.4261 204.426 64.8333 201.417 64.8333H200.375C197 59.8333 191.25 56.5 184.75 56.5C174.333 56.5 166 64.8333 166 75.25C166 77.875 166.542 80.375 167.5 82.625C163.917 86.0417 161.833 90.7917 161.833 96.0833C161.833 106.5 170.167 114.833 180.583 114.833Z" fill="#4F3D11"/>
<path fill-rule="evenodd" clip-rule="evenodd" d="M180.583 114.833C182.792 114.833 184.875 114.208 186.833 113.5H195.167C197.25 114.083 201.917 113 204 113C207 112.5 209.448 111.755 212.5 110C215.621 108.205 217.5 106.5 219.5 104C221.5 101.5 222.532 99.6753 223.5 96.5C224.501 93.2165 224.333 90.7595 224.333 87.75C224.333 84.7405 223.741 81.7605 222.589 78.9802C221.437 76.1998 219.749 73.6735 217.621 71.5455C215.493 69.4175 212.967 67.7294 210.187 66.5778C207.406 65.4261 204.426 64.8333 201.417 64.8333H200.375C197 59.8333 191.25 56.5 184.75 56.5C174.333 56.5 166 64.8333 166 75.25C166 77.875 166.542 80.375 167.5 82.625C163.917 86.0417 161.833 90.7917 161.833 96.0833C161.833 106.5 170.167 114.833 180.583 114.833Z" fill="#0F8F04"/>
<path d="M81.1667 113.5L81.1667 131.5H72.8334V109.792L81.1667 113.5Z" fill="#4F3D11"/>
<path fill-rule="evenodd" clip-rule="evenodd" d="M87.4166 114.833C85.2083 114.833 83.125 114.208 81.1666 113.5H72.8333C70.75 114.083 66.0833 113 64 113C61 112.5 58.5516 111.755 55.5 110C52.3788 108.205 50.5 106.5 48.5 104C46.5 101.5 45.4677 99.6753 44.5 96.5C43.4994 93.2165 43.6666 90.7595 43.6666 87.75C43.6666 84.7405 44.2594 81.7605 45.411 78.9802C46.5627 76.1998 48.2507 73.6735 50.3788 71.5455C52.5068 69.4175 55.0331 67.7294 57.8135 66.5778C60.5938 65.4261 63.5738 64.8333 66.5833 64.8333H67.625C71 59.8333 76.75 56.5 83.25 56.5C93.6666 56.5 102 64.8333 102 75.25C102 77.875 101.458 80.375 100.5 82.625C104.083 86.0417 106.167 90.7917 106.167 96.0833C106.167 106.5 97.8333 114.833 87.4166 114.833Z" fill="#4F3D11"/>
<path fill-rule="evenodd" clip-rule="evenodd" d="M87.4166 114.833C85.2083 114.833 83.125 114.208 81.1666 113.5H72.8333C70.75 114.083 66.0833 113 64 113C61 112.5 58.5516 111.755 55.5 110C52.3788 108.205 50.5 106.5 48.5 104C46.5 101.5 45.4677 99.6753 44.5 96.5C43.4994 93.2165 43.6666 90.7595 43.6666 87.75C43.6666 84.7405 44.2594 81.7605 45.411 78.9802C46.5627 76.1998 48.2507 73.6735 50.3788 71.5455C52.5068 69.4175 55.0331 67.7294 57.8135 66.5778C60.5938 65.4261 63.5738 64.8333 66.5833 64.8333H67.625C71 59.8333 76.75 56.5 83.25 56.5C93.6666 56.5 102 64.8333 102 75.25C102 77.875 101.458 80.375 100.5 82.625C104.083 86.0417 106.167 90.7917 106.167 96.0833C106.167 106.5 97.8333 114.833 87.4166 114.833Z" fill="#0F8F04"/>
<path d="M292.167 113.5L292.167 131.5H283.833V109.792L292.167 113.5Z" fill="#4F3D11"/>
<path fill-rule="evenodd" clip-rule="evenodd" d="M298.417 114.833C296.208 114.833 294.125 114.208 292.167 113.5H283.833C281.75 114.083 277.083 113 275 113C272 112.5 269.552 111.755 266.5 110C263.379 108.205 261.5 106.5 259.5 104C257.5 101.5 256.468 99.6753 255.5 96.5C254.499 93.2165 254.667 90.7595 254.667 87.75C254.667 84.7405 255.259 81.7605 256.411 78.9802C257.563 76.1998 259.251 73.6735 261.379 71.5455C263.507 69.4175 266.033 67.7294 268.813 66.5778C271.594 65.4261 274.574 64.8333 277.583 64.8333H278.625C282 59.8333 287.75 56.5 294.25 56.5C304.667 56.5 313 64.8333 313 75.25C313 77.875 312.458 80.375 311.5 82.625C315.083 86.0417 317.167 90.7917 317.167 96.0833C317.167 106.5 308.833 114.833 298.417 114.833Z" fill="#4F3D11"/>
<path fill-rule="evenodd" clip-rule="evenodd" d="M298.417 114.833C296.208 114.833 294.125 114.208 292.167 113.5H283.833C281.75 114.083 277.083 113 275 113C272 112.5 269.552 111.755 266.5 110C263.379 108.205 261.5 106.5 259.5 104C257.5 101.5 256.468 99.6753 255.5 96.5C254.499 93.2165 254.667 90.7595 254.667 87.75C254.667 84.7405 255.259 81.7605 256.411 78.9802C257.563 76.1998 259.251 73.6735 261.379 71.5455C263.507 69.4175 266.033 67.7294 268.813 66.5778C271.594 65.4261 274.574 64.8333 277.583 64.8333H278.625C282 59.8333 287.75 56.5 294.25 56.5C304.667 56.5 313 64.8333 313 75.25C313 77.875 312.458 80.375 311.5 82.625C315.083 86.0417 317.167 90.7917 317.167 96.0833C317.167 106.5 308.833 114.833 298.417 114.833Z" fill="#0F8F04"/>
<path d="M157.375 118.125V131.625H163.625V115.344L157.375 118.125Z" fill="#4F3D11"/>
<path fill-rule="evenodd" clip-rule="evenodd" d="M156.193 118.57C155.04 118.671 153.427 118.812 150 118.5C145.278 118.071 141.5 110.5 141.5 107.875C141.5 105.25 142 101.5 146.5 100C144 97.5001 144.5 93.4999 145.5 90.5C146.5 87.5001 149.5 84 156 83.5001C162.5 83.0003 164.469 85.7501 167 89.5001C167 89.5001 168.657 86.6922 171 86.5C172.5 86.377 174.481 86.3106 176 87C177.831 87.8308 179.154 88.5067 180.5 90C181.788 91.4285 182.641 93.3466 183 95.5C184 101.5 182 106 181.5 107.5C181 109 180.404 110.196 179 112C177.801 113.541 176.5 114.5 174.5 115C172.319 115.545 171.126 115.584 169.387 115.641C168.83 115.66 168.218 115.68 167.5 115.719C166.56 115.77 166.015 115.758 165.286 115.741C164.844 115.731 164.333 115.719 163.625 115.719L157.375 118.5C156.998 118.5 156.628 118.532 156.193 118.57Z" fill="#4F3D11"/>
<path fill-rule="evenodd" clip-rule="evenodd" d="M156.193 118.57C155.04 118.671 153.427 118.812 150 118.5C145.278 118.071 141.5 110.5 141.5 107.875C141.5 105.25 142 101.5 146.5 100C144 97.5001 144.5 93.4999 145.5 90.5C146.5 87.5001 149.5 84 156 83.5001C162.5 83.0003 164.469 85.7501 167 89.5001C167 89.5001 168.657 86.6922 171 86.5C172.5 86.377 174.481 86.3106 176 87C177.831 87.8308 179.154 88.5067 180.5 90C181.788 91.4285 182.641 93.3466 183 95.5C184 101.5 182 106 181.5 107.5C181 109 180.404 110.196 179 112C177.801 113.541 176.5 114.5 174.5 115C172.319 115.545 171.126 115.584 169.387 115.641C168.83 115.66 168.218 115.68 167.5 115.719C166.56 115.77 166.015 115.758 165.286 115.741C164.844 115.731 164.333 115.719 163.625 115.719L157.375 118.5C156.998 118.5 156.628 118.532 156.193 118.57Z" fill="#0C7004"/>
<path d="M107.625 118.125V131.625H101.375V115.344L107.625 118.125Z" fill="#4F3D11"/>
<path d="M123.5 107.875C123.5 110.5 119.722 118.071 115 118.5C111.573 118.812 109.96 118.671 108.807 118.57H108.807H108.807C108.372 118.532 108.002 118.5 107.625 118.5C107.625 118.5 103.868 118.389 101.5 118C99.1167 117.608 97.7216 117.448 95.5 116.5C92.9097 115.395 91.4848 114.498 89.5 112.5C88.1238 111.115 87.432 110.216 86.5 108.5C85.2324 106.166 84.8088 104.638 84.5 102C84.1813 99.278 84.1295 97.5988 85 95.0001C85.6385 93.0938 86.0785 91.9216 87.5 90.5001C88.9215 89.0786 90.0164 88.3267 92 88.0001C94.6206 87.5686 98.5 90 98.5 90C101.031 86.25 102.5 83.0003 109 83.5002C115.5 84.0001 118.5 87.5002 119.5 90.5001C120.5 93.5 121 97.5002 118.5 100C123 101.5 123.5 105.25 123.5 107.875Z" fill="#0C7004"/>
<path d="M358.625 118.125V131.625H352.375V115.344L358.625 118.125Z" fill="#4F3D11"/>
<path d="M374.5 107.875C374.5 110.5 370.722 118.071 366 118.5C362.573 118.812 360.96 118.671 359.807 118.57H359.807H359.807C359.372 118.532 359.002 118.5 358.625 118.5L352.5 118C352.5 118 350.039 117.833 348.5 117.5C345.842 116.924 344.152 116.663 342 115C339.899 113.376 339.096 111.919 338 109.5C336.846 106.953 336.412 105.294 336.5 102.5C336.59 99.6583 336.752 97.7423 338.5 95.5C340.065 93.492 341.539 92.6512 344 92C346.076 91.4506 349.5 92 349.5 92C352.031 88.25 353.5 83.0001 360 83.5C366.5 83.9999 369.5 87.5 370.5 90.4999C371.5 93.4998 372 97.5 369.5 100C374 101.5 374.5 105.25 374.5 107.875Z" fill="#0C7004"/>
</svg>
